<mxfile host="app.diagrams.net" modified="2022-09-23T08:46:26.268Z" agent="5.0 (Macintosh; Intel Mac OS X 10_15_7) AppleWebKit/537.36 (KHTML, like Gecko) Chrome/105.0.0.0 Safari/537.36" etag="ClZGVmtWzZuHHV22qvtm" version="20.3.3" type="github">
  <diagram id="n3u7V5_Vv9tfDJNo9H2E" name="Page-1">
    <mxGraphModel dx="1186" dy="712" grid="1" gridSize="10" guides="1" tooltips="1" connect="1" arrows="1" fold="1" page="1" pageScale="1" pageWidth="850" pageHeight="1100" math="0" shadow="0">
      <root>
        <mxCell id="0" />
        <mxCell id="1" parent="0" />
        <mxCell id="QqgKo3gZyKeCqmeyJw2p-4" style="edgeStyle=orthogonalEdgeStyle;rounded=0;orthogonalLoop=1;jettySize=auto;html=1;exitX=0.5;exitY=1;exitDx=0;exitDy=0;entryX=0.5;entryY=0;entryDx=0;entryDy=0;" edge="1" parent="1" source="QqgKo3gZyKeCqmeyJw2p-1" target="QqgKo3gZyKeCqmeyJw2p-2">
          <mxGeometry relative="1" as="geometry" />
        </mxCell>
        <mxCell id="QqgKo3gZyKeCqmeyJw2p-1" value="OS&amp;nbsp;" style="rounded=0;whiteSpace=wrap;html=1;" vertex="1" parent="1">
          <mxGeometry x="360" y="40" width="160" height="60" as="geometry" />
        </mxCell>
        <mxCell id="QqgKo3gZyKeCqmeyJw2p-6" style="edgeStyle=orthogonalEdgeStyle;rounded=0;orthogonalLoop=1;jettySize=auto;html=1;exitX=1;exitY=0.5;exitDx=0;exitDy=0;entryX=0.083;entryY=0.583;entryDx=0;entryDy=0;entryPerimeter=0;" edge="1" parent="1" source="QqgKo3gZyKeCqmeyJw2p-2" target="QqgKo3gZyKeCqmeyJw2p-5">
          <mxGeometry relative="1" as="geometry" />
        </mxCell>
        <mxCell id="QqgKo3gZyKeCqmeyJw2p-9" style="edgeStyle=orthogonalEdgeStyle;rounded=0;orthogonalLoop=1;jettySize=auto;html=1;exitX=0.5;exitY=1;exitDx=0;exitDy=0;entryX=0.5;entryY=0;entryDx=0;entryDy=0;" edge="1" parent="1" source="QqgKo3gZyKeCqmeyJw2p-2" target="QqgKo3gZyKeCqmeyJw2p-8">
          <mxGeometry relative="1" as="geometry" />
        </mxCell>
        <mxCell id="QqgKo3gZyKeCqmeyJw2p-2" value="if eligible for web &lt;br&gt;checkin&amp;nbsp;" style="rhombus;whiteSpace=wrap;html=1;" vertex="1" parent="1">
          <mxGeometry x="370" y="200" width="140" height="150" as="geometry" />
        </mxCell>
        <mxCell id="QqgKo3gZyKeCqmeyJw2p-5" value="normal OS&amp;nbsp;" style="rounded=0;whiteSpace=wrap;html=1;" vertex="1" parent="1">
          <mxGeometry x="600" y="240" width="120" height="60" as="geometry" />
        </mxCell>
        <mxCell id="QqgKo3gZyKeCqmeyJw2p-7" value="No" style="text;html=1;align=center;verticalAlign=middle;resizable=0;points=[];autosize=1;strokeColor=none;fillColor=none;" vertex="1" parent="1">
          <mxGeometry x="530" y="235" width="40" height="30" as="geometry" />
        </mxCell>
        <mxCell id="QqgKo3gZyKeCqmeyJw2p-11" style="edgeStyle=orthogonalEdgeStyle;rounded=0;orthogonalLoop=1;jettySize=auto;html=1;exitX=0.5;exitY=1;exitDx=0;exitDy=0;" edge="1" parent="1" source="QqgKo3gZyKeCqmeyJw2p-8" target="QqgKo3gZyKeCqmeyJw2p-10">
          <mxGeometry relative="1" as="geometry" />
        </mxCell>
        <mxCell id="QqgKo3gZyKeCqmeyJw2p-8" value="web checkin shows&amp;nbsp;" style="rounded=0;whiteSpace=wrap;html=1;" vertex="1" parent="1">
          <mxGeometry x="360" y="440" width="160" height="60" as="geometry" />
        </mxCell>
        <mxCell id="QqgKo3gZyKeCqmeyJw2p-13" style="edgeStyle=orthogonalEdgeStyle;rounded=0;orthogonalLoop=1;jettySize=auto;html=1;exitX=0.5;exitY=1;exitDx=0;exitDy=0;entryX=0.5;entryY=0;entryDx=0;entryDy=0;" edge="1" parent="1" source="QqgKo3gZyKeCqmeyJw2p-10" target="QqgKo3gZyKeCqmeyJw2p-12">
          <mxGeometry relative="1" as="geometry" />
        </mxCell>
        <mxCell id="QqgKo3gZyKeCqmeyJw2p-10" value="capture passenger info&amp;nbsp;" style="rounded=0;whiteSpace=wrap;html=1;" vertex="1" parent="1">
          <mxGeometry x="360" y="600" width="160" height="60" as="geometry" />
        </mxCell>
        <mxCell id="QqgKo3gZyKeCqmeyJw2p-15" style="edgeStyle=orthogonalEdgeStyle;rounded=0;orthogonalLoop=1;jettySize=auto;html=1;exitX=0.5;exitY=1;exitDx=0;exitDy=0;entryX=0.5;entryY=0;entryDx=0;entryDy=0;" edge="1" parent="1" source="QqgKo3gZyKeCqmeyJw2p-12" target="QqgKo3gZyKeCqmeyJw2p-14">
          <mxGeometry relative="1" as="geometry" />
        </mxCell>
        <mxCell id="QqgKo3gZyKeCqmeyJw2p-12" value="capture additional &lt;br&gt;passenger info&amp;nbsp;" style="rounded=0;whiteSpace=wrap;html=1;" vertex="1" parent="1">
          <mxGeometry x="360" y="760" width="160" height="60" as="geometry" />
        </mxCell>
        <mxCell id="QqgKo3gZyKeCqmeyJw2p-14" value="is seat selected &lt;br&gt;already ?" style="rhombus;whiteSpace=wrap;html=1;" vertex="1" parent="1">
          <mxGeometry x="360" y="890" width="160" height="110" as="geometry" />
        </mxCell>
      </root>
    </mxGraphModel>
  </diagram>
</mxfile>
